<svg data-name="Componente 1 – 1" xmlns="http://www.w3.org/2000/svg" width="74.5" height="74.5"><path data-name="Caminho 8079" d="M37.25 74.5A37.254 37.254 0 010 37.25 37.254 37.254 0 0137.25 0 37.254 37.254 0 0174.5 37.25 37.254 37.254 0 0137.25 74.5z" fill="#25d366"/><g data-name="Group 35"><g data-name="Group 34"><g data-name="Ellipse 19" fill="none"><path d="M38.25 11.994a23.977 23.977 0 11-23.977 23.977A23.977 23.977 0 0138.25 11.994z"/><path d="M38.25 15.994a19.846 19.846 0 00-14.126 5.851 19.846 19.846 0 00-5.851 14.126 19.846 19.846 0 005.851 14.125 19.846 19.846 0 0014.126 5.851 19.846 19.846 0 0014.125-5.85 19.846 19.846 0 005.851-14.126 19.846 19.846 0 00-5.85-14.126 19.846 19.846 0 00-14.126-5.851m0-4c13.241 0 23.976 10.735 23.976 23.977 0 13.241-10.735 23.976-23.976 23.976-13.242 0-23.977-10.735-23.977-23.976 0-13.242 10.735-23.977 23.977-23.977z" fill="#fff"/></g><path data-name="Path 126" d="M18.045 48.209l-3.47 12.3 12.751-3.546.679-3.923-8.3 2.641 2.188-7.922z" fill="#fff"/><path data-name="Path 127" d="M19.554 55.753c0-.1 3.366-11.253 3.366-11.253l8.079 7.6z" fill="#25d366"/></g><path data-name="Path 128" d="M28.583 24.921a7.093 7.093 0 00-2.943 4.6 10.758 10.758 0 001.434 5.96 38.387 38.387 0 006.488 7.394 22.772 22.772 0 007.243 3.848 8.585 8.585 0 004.829.453 6.916 6.916 0 003.622-2.414 7.418 7.418 0 00.453-1.66 4.417 4.417 0 000-1.509c-.075-.528-5.508-3.018-6.036-2.867s-.981 1.132-1.584 1.962-.83 1.207-1.433 1.207a13.249 13.249 0 01-5.734-3.32 11.977 11.977 0 01-3.244-4.527s.453-.528 1.056-1.358a4.276 4.276 0 00.981-1.811c0-.377-2.112-5.734-2.641-5.96a8.944 8.944 0 00-2.49 0z" fill="#fff"/></g></svg>